<?xml version="1.0" encoding="UTF-8"?>
<svg version="1.1" xmlns="http://www.w3.org/2000/svg" width="136" height="136">
<path d="M0 0 C2.574156 1.83062 3.02129901 3.66744803 3.98022461 6.64990234 C4.46555664 8.08462891 4.46555664 8.08462891 4.96069336 9.54833984 C6.11071818 14.69915524 6.35444068 20.0154952 6.79272461 25.27490234 C-1.45727539 25.27490234 -9.70727539 25.27490234 -18.20727539 25.27490234 C-22.10635796 13.57765464 -22.10635796 13.57765464 -21.20727539 10.27490234 C-18.38876347 7.79079015 -15.24635715 6.06504118 -11.95727539 4.27490234 C-11.08458008 3.76056641 -10.21188477 3.24623047 -9.31274414 2.71630859 C-2.83688152 -0.93192546 -2.83688152 -0.93192546 0 0 Z " fill="#EB9A0B" transform="translate(122.207275390625,38.72509765625)"/>
<path d="M0 0 C4.50004494 1.37810563 8.20069786 3.6194428 12.19140625 6.078125 C12.97515625 6.55056641 13.75890625 7.02300781 14.56640625 7.50976562 C16.48839058 8.66998787 18.4046316 9.83868276 20.31640625 11.015625 C17.37896253 19.71916196 9.88391286 26.18530163 2.31640625 31.015625 C-1.24284745 27.68092785 -3.45819001 23.74225757 -5.93359375 19.578125 C-6.40539062 18.81435547 -6.8771875 18.05058594 -7.36328125 17.26367188 C-8.02457031 16.15282227 -8.02457031 16.15282227 -8.69921875 15.01953125 C-9.30685059 14.01128296 -9.30685059 14.01128296 -9.92675781 12.98266602 C-10.86494485 10.54428764 -10.60181668 9.42772962 -9.68359375 7.015625 C-8.265625 5.05859375 -8.265625 5.05859375 -6.49609375 3.203125 C-5.92503906 2.57792969 -5.35398437 1.95273438 -4.765625 1.30859375 C-2.68359375 0.015625 -2.68359375 0.015625 0 0 Z " fill="#E95F47" transform="translate(98.68359375,87.984375)"/>
<path d="M0 0 C8.82038545 0.63357698 16.86729392 2.58094397 25 6 C24.47311395 11.26886052 21.77556913 15.29734421 19.125 19.75 C18.67769531 20.52988281 18.23039062 21.30976563 17.76953125 22.11328125 C17.33253906 22.85449219 16.89554688 23.59570312 16.4453125 24.359375 C16.04844238 25.03452148 15.65157227 25.70966797 15.24267578 26.40527344 C14 28 14 28 11 29 C8.58984375 28.58203125 8.58984375 28.58203125 5.9375 27.8125 C5.05964844 27.57144531 4.18179688 27.33039062 3.27734375 27.08203125 C0.45505606 25.74108152 0.11585841 24.8683684 -1 22 C-1.24291992 19.6340332 -1.24291992 19.6340332 -1.23046875 17.05078125 C-1.22853516 16.12072266 -1.22660156 15.19066406 -1.22460938 14.23242188 C-1.21236328 13.26884766 -1.20011719 12.30527344 -1.1875 11.3125 C-1.18685547 10.33732422 -1.18621094 9.36214844 -1.18554688 8.35742188 C-1.14034598 1.14034598 -1.14034598 1.14034598 0 0 Z " fill="#E9990B" transform="translate(70,4)"/>
<path d="M0 0 C1.3503418 1.81005859 1.3503418 1.81005859 2.69921875 4.1484375 C3.18583984 4.98890625 3.67246094 5.829375 4.17382812 6.6953125 C4.9230957 8.02175781 4.9230957 8.02175781 5.6875 9.375 C6.19861328 10.2515625 6.70972656 11.128125 7.23632812 12.03125 C11 18.60385723 11 18.60385723 11 22 C-10.75216138 29.12391931 -10.75216138 29.12391931 -15 27 C-15.0289337 23.20834926 -15.04677601 19.41672673 -15.0625 15.625 C-15.07087891 14.54476562 -15.07925781 13.46453125 -15.08789062 12.3515625 C-15.09111328 11.3203125 -15.09433594 10.2890625 -15.09765625 9.2265625 C-15.10289307 8.27346191 -15.10812988 7.32036133 -15.11352539 6.33837891 C-15 4 -15 4 -14 2 C-11.6015625 1.11328125 -11.6015625 1.11328125 -8.625 0.3125 C-7.64789063 0.04050781 -6.67078125 -0.23148437 -5.6640625 -0.51171875 C-3 -1 -3 -1 0 0 Z " fill="#E95F47" transform="translate(84,101)"/>
<path d="M0 0 C5.43683334 1.49212776 9.69063815 4.1009183 14.375 7.125 C15.11105469 7.59292969 15.84710937 8.06085937 16.60546875 8.54296875 C18.40730078 9.68958913 20.20416431 10.84401076 22 12 C21.69024532 13.77131561 21.37709575 15.54203778 21.0625 17.3125 C20.80146484 18.79169922 20.80146484 18.79169922 20.53515625 20.30078125 C20 23 20 23 19 26 C10.75 26 2.5 26 -6 26 C-6 15.84671533 -6 15.84671533 -4.125 10.1875 C-3.77695313 9.10855469 -3.42890625 8.02960937 -3.0703125 6.91796875 C-2.18234473 4.4971223 -1.21870768 2.26723546 0 0 Z " fill="#228BED" transform="translate(11,38)"/>
<path d="M0 0 C3.96 6.93 7.92 13.86 12 21 C6 28 6 28 3 31 C-2.1228851 31.00936542 -6.57857736 27.51760206 -10.8125 24.9375 C-11.60076172 24.46505859 -12.38902344 23.99261719 -13.20117188 23.50585938 C-15.13812608 22.34368685 -17.07078295 21.17495583 -19 20 C-17.80833871 11.39024721 -10.44891645 6.28591148 -3.91796875 1.25 C-2 0 -2 0 0 0 Z " fill="#228BEE" transform="translate(34,14)"/>
<path d="M0 0 C8.25 0 16.5 0 25 0 C28 11 28 11 27 15 C25.17407227 16.46386719 25.17407227 16.46386719 22.81640625 17.796875 C21.97142578 18.28027344 21.12644531 18.76367188 20.25585938 19.26171875 C19.36705078 19.75285156 18.47824219 20.24398437 17.5625 20.75 C16.67755859 21.25660156 15.79261719 21.76320313 14.88085938 22.28515625 C8.30728816 26 8.30728816 26 6 26 C5.18167278 24.10667466 4.37057732 22.21022267 3.5625 20.3125 C3.11003906 19.25675781 2.65757812 18.20101562 2.19140625 17.11328125 C-0.17969298 10.91732688 0 7.05747311 0 0 Z " fill="#228BED" transform="translate(5,69)"/>
<path d="M0 0 C2.140625 1.62890625 2.140625 1.62890625 4.25 3.5625 C4.95640625 4.20316406 5.6628125 4.84382813 6.390625 5.50390625 C6.92171875 5.99761719 7.4528125 6.49132812 8 7 C6.50787224 12.43683334 3.8990817 16.69063815 0.875 21.375 C0.40707031 22.11105469 -0.06085937 22.84710938 -0.54296875 23.60546875 C-1.68958913 25.40730078 -2.84401076 27.20416431 -4 29 C-11.466759 27.97768811 -16.02623292 22.4717683 -20.5 16.75 C-22.49931917 14.09133089 -23 13.4250784 -23 10 C-20.17651607 7.70479139 -16.9101101 6.04332808 -13.75 4.25 C-12.87730469 3.73050781 -12.00460938 3.21101563 -11.10546875 2.67578125 C-10.26113281 2.18980469 -9.41679687 1.70382813 -8.546875 1.203125 C-7.77182617 0.75614258 -6.99677734 0.30916016 -6.19824219 -0.15136719 C-3.60735662 -1.15158023 -2.54800202 -1.01872995 0 0 Z " fill="#228BED" transform="translate(38,89)"/>
<path d="M0 0 C8.10663574 4.05331787 14.4915148 10.1101509 19 18 C19 18.66 19 19.32 19 20 C16.09526305 22.16505016 12.88557965 23.87851174 9.75 25.6875 C8.87730469 26.21150391 8.00460938 26.73550781 7.10546875 27.27539062 C6.26113281 27.76587891 5.41679688 28.25636719 4.546875 28.76171875 C3.77182617 29.21506592 2.99677734 29.66841309 2.19824219 30.13549805 C-0.39715297 31.15618821 -1.44702414 31.0426224 -4 30 C-6.140625 28.15234375 -6.140625 28.15234375 -8.25 25.9375 C-8.95640625 25.20402344 -9.6628125 24.47054687 -10.390625 23.71484375 C-10.92171875 23.14894531 -11.4528125 22.58304688 -12 22 C-10.53506506 16.85271493 -8.2231504 12.69822932 -5.4375 8.1875 C-5.02564453 7.50751953 -4.61378906 6.82753906 -4.18945312 6.12695312 C-1.16952328 1.16952328 -1.16952328 1.16952328 0 0 Z " fill="#EC9A0A" transform="translate(100,14)"/>
<path d="M0 0 C7.92 0 15.84 0 24 0 C25.01115006 5.05575028 24.5282985 8.18862649 23.25 13 C23.07984375 13.69867188 22.9096875 14.39734375 22.734375 15.1171875 C21.69019781 19.18640744 20.36229197 22.52444401 18 26 C10.89852704 22.50333565 3.87573101 18.9240283 -3 15 C-2.88465396 13.43675768 -2.75724874 11.87440317 -2.625 10.3125 C-2.55539063 9.44238281 -2.48578125 8.57226562 -2.4140625 7.67578125 C-2 5 -2 5 0 0 Z " fill="#E95F47" transform="translate(104,69)"/>
<path d="M0 0 C0 8.25 0 16.5 0 25 C-6.435 26.485 -6.435 26.485 -13 28 C-17.5 22.375 -17.5 22.375 -19.359375 19.01171875 C-19.75253906 18.30595703 -20.14570312 17.60019531 -20.55078125 16.87304688 C-21.14439453 15.79120117 -21.14439453 15.79120117 -21.75 14.6875 C-22.16121094 13.94693359 -22.57242188 13.20636719 -22.99609375 12.44335938 C-24.00154785 10.63120373 -25.001353 8.8159158 -26 7 C-23.16311745 3.92175896 -20.72542861 3.0579687 -16.6875 1.875 C-15.57761719 1.54242188 -14.46773437 1.20984375 -13.32421875 0.8671875 C-8.35595787 -0.42888056 -5.04329455 -1.26082364 0 0 Z " fill="#ED9B0A" transform="translate(64,5)"/>
<path d="M0 0 C2.78515625 0.42578125 2.78515625 0.42578125 6.0625 1.3125 C7.14660156 1.59738281 8.23070313 1.88226563 9.34765625 2.17578125 C12 3 12 3 13 4 C13.08726223 5.78071246 13.10699041 7.5648314 13.09765625 9.34765625 C13.09443359 10.42724609 13.09121094 11.50683594 13.08789062 12.61914062 C13.07951172 13.75544922 13.07113281 14.89175781 13.0625 16.0625 C13.05798828 17.20267578 13.05347656 18.34285156 13.04882812 19.51757812 C13.03699747 22.34510351 13.0205141 25.1725264 13 28 C6.96174331 30.01275223 -1.75087332 27.39747384 -7.54296875 24.90625 C-9.4375 23.8125 -9.4375 23.8125 -12 22 C-11.45204552 17.02995676 -9.13965151 13.47062708 -6.5625 9.3125 C-6.15451172 8.63638672 -5.74652344 7.96027344 -5.32617188 7.26367188 C-3.70800884 4.61072922 -2.20518618 2.20518618 0 0 Z " fill="#ED6047" transform="translate(51,100)"/>
<path d="M0 0 C0.66 0.33 1.32 0.66 2 1 C-1.63 4.63 -5.26 8.26 -9 12 C-9.66 11.67 -10.32 11.34 -11 11 C-7.6381774 6.74828319 -4.25171681 3.3618226 0 0 Z " fill="#2977BF" transform="translate(29,16)"/>
</svg>
